<svg width="80" height="17" viewBox="0 0 80 17" fill="none" xmlns="http://www.w3.org/2000/svg">
<path d="M9 0C4.02 0 0 3.79667 0 8.5C0 13.2033 4.02 17 9 17C13.98 17 18 13.2033 18 8.5C18 3.79667 13.98 0 9 0Z" fill="black"/>
<path d="M9 0C4.02 0 0 3.79667 0 8.5C0 13.2033 4.02 17 9 17C13.98 17 18 13.2033 18 8.5C18 3.79667 13.98 0 9 0Z" fill="black"/>
<path d="M39 0C34.02 0 30 3.79667 30 8.5C30 13.2033 34.02 17 39 17C43.98 17 48 13.2033 48 8.5C48 3.79667 43.98 0 39 0Z" fill="black"/>
<path d="M71 0C66.02 0 62 3.79667 62 8.5C62 13.2033 66.02 17 71 17C75.98 17 80 13.2033 80 8.5C80 3.79667 75.98 0 71 0Z" fill="black"/>
</svg>
