<svg width="24" height="36" viewBox="0 0 24 36" fill="none" xmlns="http://www.w3.org/2000/svg">
<path fill-rule="evenodd" clip-rule="evenodd" d="M4.91949 4.63788C3.19731 6.33728 2 9.00181 2 12.8571C2 17.0486 2.53577 18.197 2.93827 18.7776C3.1219 19.0424 3.27657 19.207 3.51698 19.4628L3.51699 19.4628C3.66384 19.6191 3.84269 19.8093 4.07966 20.0773C4.64069 20.7117 5.24413 21.508 5.81237 22.7257C6.88476 25.0236 7.43263 26.7822 7.71194 28H16.2881C16.5674 26.7822 17.1152 25.0236 18.1876 22.7257C18.7559 21.508 19.3593 20.7117 19.9203 20.0773C20.1573 19.8094 20.3361 19.6191 20.483 19.4629L20.483 19.4628C20.7234 19.207 20.8781 19.0424 21.0617 18.7776C21.4642 18.197 22 17.0486 22 12.8571C22 9.00181 20.8027 6.33728 19.0805 4.63788C17.3467 2.92702 14.8844 2 12 2C9.1156 2 6.65327 2.92702 4.91949 4.63788ZM0 12.8571C0 4.28572 5.37258 0 12 0C18.6274 0 24 4.28572 24 12.8571C24 18.6291 23.0391 19.6582 21.8371 20.9455C21.2541 21.5699 20.6143 22.255 20 23.5714C18.7849 26.1752 18.308 27.988 18.1209 29.0099C18.0214 29.5531 17.5523 30 17 30H7C6.44771 30 5.9786 29.5531 5.87911 29.0099C5.69196 27.988 5.21509 26.1752 4 23.5714C3.38566 22.255 2.74593 21.5699 2.16293 20.9455C0.960883 19.6582 0 18.6291 0 12.8571ZM6 31.8684C6 31.5923 6.22386 31.3684 6.5 31.3684H17.5C17.7761 31.3684 18 31.5923 18 31.8684V34.5064C18 34.7094 17.8777 34.8919 17.688 34.9643C17.0032 35.2259 15.3237 35.8297 14 36H10C8.67631 35.8297 6.99683 35.2259 6.31197 34.9643C6.12227 34.8919 6 34.7094 6 34.5064V31.8684ZM9 22.1052C9 22.079 9.02311 21.9083 9.21037 21.6237C9.3867 21.3557 9.67336 21.0431 10.0863 20.7443C10.9053 20.1516 12.1973 19.6316 14 19.6316C14.5523 19.6316 15 19.1839 15 18.6316C15 18.0793 14.5523 17.6316 14 17.6316C11.8027 17.6316 10.0947 18.2694 8.91374 19.1241C8.32664 19.549 7.8633 20.0324 7.53963 20.5243C7.22689 20.9996 7 21.5525 7 22.1052C7 22.6575 7.44771 23.1052 8 23.1052C8.55228 23.1052 9 22.6575 9 22.1052Z" fill="#222222"/>
</svg>
