<svg width="49" height="48" viewBox="0 0 49 48" fill="none" xmlns="http://www.w3.org/2000/svg">
<g clip-path="url(#clip0_301_611)">
<path d="M48.8489 24C48.8489 10.7453 38.1036 0 24.8489 0C11.5942 0 0.848877 10.7453 0.848877 24C0.848877 35.255 8.598 44.6995 19.0514 47.2934V31.3344H14.1026V24H19.0514V20.8397C19.0514 12.671 22.7484 8.8848 30.7682 8.8848C32.2889 8.8848 34.9126 9.18336 35.9858 9.48096V16.129C35.4194 16.0694 34.4354 16.0397 33.2134 16.0397C29.2783 16.0397 27.7577 17.5306 27.7577 21.4061V24H35.597L34.2502 31.3344H27.7577V47.8243C39.6415 46.3891 48.8498 36.2707 48.8498 24H48.8489Z" fill="#0866FF"/>
<path d="M34.2491 31.3344L35.596 24H27.7566V21.4061C27.7566 17.5306 29.2772 16.0397 33.2123 16.0397C34.4344 16.0397 35.4184 16.0695 35.9848 16.129V9.48099C34.9115 9.18243 32.2878 8.88483 30.7672 8.88483C22.7473 8.88483 19.0504 12.6711 19.0504 20.8397V24H14.1016V31.3344H19.0504V47.2935C20.907 47.7543 22.8491 48 24.8478 48C25.8318 48 26.8024 47.9395 27.7556 47.8243V31.3344H34.2481H34.2491Z" fill="white"/>
</g>
<defs>
<clipPath id="clip0_301_611">
<rect width="48" height="48" fill="white" transform="translate(0.848877)"/>
</clipPath>
</defs>
</svg>
