<svg width="49" height="48" viewBox="0 0 49 48" fill="none" xmlns="http://www.w3.org/2000/svg">
<g clip-path="url(#clip0_301_607)">
<path fill-rule="evenodd" clip-rule="evenodd" d="M24.8687 0C11.5864 0 0.848877 10.8167 0.848877 24.1983C0.848877 34.895 7.72876 43.9495 17.273 47.1542C18.4663 47.3951 18.9034 46.6335 18.9034 45.9929C18.9034 45.4319 18.864 43.509 18.864 41.5055C12.1823 42.948 10.7909 38.6209 10.7909 38.6209C9.71706 35.8164 8.12603 35.0956 8.12603 35.0956C5.9391 33.6132 8.28533 33.6132 8.28533 33.6132C10.7112 33.7735 11.9841 36.0971 11.9841 36.0971C14.1312 39.7827 17.5911 38.7413 18.983 38.1002C19.1816 36.5377 19.8183 35.456 20.4944 34.8552C15.1652 34.2942 9.55825 32.211 9.55825 22.9161C9.55825 20.2719 10.5121 18.1086 12.0235 16.4261C11.785 15.8253 10.9497 13.3409 12.2624 10.0157C12.2624 10.0157 14.2905 9.3746 18.8635 12.4996C20.8214 11.9699 22.8405 11.7005 24.8687 11.6982C26.8969 11.6982 28.9643 11.979 30.8735 12.4996C35.4469 9.3746 37.4751 10.0157 37.4751 10.0157C38.7878 13.3409 37.952 15.8253 37.7135 16.4261C39.2647 18.1086 40.1792 20.2719 40.1792 22.9161C40.1792 32.211 34.5723 34.2539 29.2033 34.8552C30.0784 35.6163 30.8336 37.0583 30.8336 39.3421C30.8336 42.5871 30.7943 45.1915 30.7943 45.9924C30.7943 46.6335 31.2319 47.3951 32.4247 47.1547C41.9689 43.9491 48.8488 34.895 48.8488 24.1983C48.8881 10.8167 38.1113 0 24.8687 0Z" fill="#24292F"/>
</g>
<defs>
<clipPath id="clip0_301_607">
<rect width="48" height="48" fill="white" transform="translate(0.848877)"/>
</clipPath>
</defs>
</svg>
