<svg width="49" height="48" viewBox="0 0 49 48" fill="none" xmlns="http://www.w3.org/2000/svg">
<g clip-path="url(#clip0_301_609)">
<path d="M24.8489 4.32187C31.2614 4.32187 32.0208 4.35 34.5426 4.4625C36.8864 4.56562 38.152 4.95938 38.9958 5.2875C40.1114 5.71875 40.9176 6.24375 41.752 7.07812C42.5958 7.92188 43.1114 8.71875 43.5426 9.83438C43.8708 10.6781 44.2645 11.9531 44.3676 14.2875C44.4801 16.8187 44.5083 17.5781 44.5083 23.9813C44.5083 30.3938 44.4801 31.1531 44.3676 33.675C44.2645 36.0188 43.8708 37.2844 43.5426 38.1281C43.1114 39.2438 42.5864 40.05 41.752 40.8844C40.9083 41.7281 40.1114 42.2438 38.9958 42.675C38.152 43.0031 36.877 43.3969 34.5426 43.5C32.0114 43.6125 31.252 43.6406 24.8489 43.6406C18.4364 43.6406 17.677 43.6125 15.1551 43.5C12.8114 43.3969 11.5458 43.0031 10.702 42.675C9.58638 42.2438 8.78013 41.7188 7.94575 40.8844C7.102 40.0406 6.58638 39.2438 6.15513 38.1281C5.827 37.2844 5.43325 36.0094 5.33013 33.675C5.21763 31.1438 5.1895 30.3844 5.1895 23.9813C5.1895 17.5688 5.21763 16.8094 5.33013 14.2875C5.43325 11.9437 5.827 10.6781 6.15513 9.83438C6.58638 8.71875 7.11138 7.9125 7.94575 7.07812C8.7895 6.23438 9.58638 5.71875 10.702 5.2875C11.5458 4.95938 12.8208 4.56562 15.1551 4.4625C17.677 4.35 18.4364 4.32187 24.8489 4.32187ZM24.8489 0C18.3333 0 17.5176 0.028125 14.9583 0.140625C12.4083 0.253125 10.6551 0.665625 9.13638 1.25625C7.552 1.875 6.21138 2.69062 4.88013 4.03125C3.5395 5.3625 2.72388 6.70313 2.10513 8.27813C1.5145 9.80625 1.102 11.55 0.989502 14.1C0.877002 16.6687 0.848877 17.4844 0.848877 24C0.848877 30.5156 0.877002 31.3312 0.989502 33.8906C1.102 36.4406 1.5145 38.1938 2.10513 39.7125C2.72388 41.2969 3.5395 42.6375 4.88013 43.9688C6.21138 45.3 7.552 46.125 9.127 46.7344C10.6551 47.325 12.3989 47.7375 14.9489 47.85C17.5083 47.9625 18.3239 47.9906 24.8395 47.9906C31.3551 47.9906 32.1708 47.9625 34.7301 47.85C37.2801 47.7375 39.0333 47.325 40.552 46.7344C42.127 46.125 43.4676 45.3 44.7989 43.9688C46.1301 42.6375 46.9551 41.2969 47.5645 39.7219C48.1551 38.1938 48.5676 36.45 48.6801 33.9C48.7926 31.3406 48.8208 30.525 48.8208 24.0094C48.8208 17.4938 48.7926 16.6781 48.6801 14.1188C48.5676 11.5688 48.1551 9.81563 47.5645 8.29688C46.9739 6.70312 46.1583 5.3625 44.8176 4.03125C43.4864 2.7 42.1458 1.875 40.5708 1.26562C39.0426 0.675 37.2989 0.2625 34.7489 0.15C32.1801 0.028125 31.3645 0 24.8489 0Z" fill="#000100"/>
<path d="M24.8489 11.6719C18.0426 11.6719 12.5208 17.1938 12.5208 24C12.5208 30.8062 18.0426 36.3281 24.8489 36.3281C31.6551 36.3281 37.177 30.8062 37.177 24C37.177 17.1938 31.6551 11.6719 24.8489 11.6719ZM24.8489 31.9969C20.4333 31.9969 16.852 28.4156 16.852 24C16.852 19.5844 20.4333 16.0031 24.8489 16.0031C29.2645 16.0031 32.8458 19.5844 32.8458 24C32.8458 28.4156 29.2645 31.9969 24.8489 31.9969Z" fill="#000100"/>
<path d="M40.5426 11.1844C40.5426 12.7782 39.2489 14.0625 37.6645 14.0625C36.0708 14.0625 34.7864 12.7688 34.7864 11.1844C34.7864 9.59065 36.0801 8.30627 37.6645 8.30627C39.2489 8.30627 40.5426 9.60003 40.5426 11.1844Z" fill="#000100"/>
</g>
<defs>
<clipPath id="clip0_301_609">
<rect width="48" height="48" fill="white" transform="translate(0.848877)"/>
</clipPath>
</defs>
</svg>
