<svg width="49" height="48" viewBox="0 0 49 48" fill="none" xmlns="http://www.w3.org/2000/svg">
<g clip-path="url(#clip0_301_610)">
<path d="M45.3055 0H4.39221C3.45246 0 2.5512 0.373315 1.8867 1.03782C1.22219 1.70232 0.848877 2.60358 0.848877 3.54333V44.4567C0.848877 45.3964 1.22219 46.2977 1.8867 46.9622C2.5512 47.6267 3.45246 48 4.39221 48H45.3055C46.2453 48 47.1466 47.6267 47.8111 46.9622C48.4756 46.2977 48.8489 45.3964 48.8489 44.4567V3.54333C48.8489 2.60358 48.4756 1.70232 47.8111 1.03782C47.1466 0.373315 46.2453 0 45.3055 0ZM15.1555 40.89H7.93888V17.9667H15.1555V40.89ZM11.5422 14.79C10.7236 14.7854 9.92471 14.5384 9.24635 14.0802C8.56798 13.622 8.04056 12.9731 7.73063 12.2154C7.42071 11.4577 7.34217 10.6252 7.50494 9.82291C7.66771 9.02063 8.06448 8.28455 8.64519 7.70756C9.22589 7.13057 9.96451 6.73853 10.7678 6.58092C11.5711 6.42331 12.4031 6.50719 13.1588 6.82197C13.9145 7.13675 14.56 7.66833 15.0138 8.34962C15.4677 9.03092 15.7095 9.83138 15.7089 10.65C15.7166 11.1981 15.6139 11.7421 15.4069 12.2496C15.1999 12.7571 14.8928 13.2178 14.504 13.6041C14.1152 13.9905 13.6526 14.2946 13.1437 14.4983C12.6349 14.702 12.0902 14.8012 11.5422 14.79ZM41.7555 40.91H34.5422V28.3867C34.5422 24.6933 32.9722 23.5533 30.9455 23.5533C28.8055 23.5533 26.7055 25.1667 26.7055 28.48V40.91H19.4889V17.9833H26.4289V21.16H26.5222C27.2189 19.75 29.6589 17.34 33.3822 17.34C37.4089 17.34 41.7589 19.73 41.7589 26.73L41.7555 40.91Z" fill="#0A66C2"/>
</g>
<defs>
<clipPath id="clip0_301_610">
<rect width="48" height="48" fill="white" transform="translate(0.848877)"/>
</clipPath>
</defs>
</svg>
